<svg xmlns="http://www.w3.org/2000/svg" version="1.1" xmlns:xlink="http://www.w3.org/1999/xlink" xmlns:svgjs="http://svgjs.dev/svgjs" width="1500" height="1500" viewBox="0 0 1500 1500"><rect width="1500" height="1500" fill="#ffffff"></rect><g transform="matrix(0.6666666666666666,0,0,0.6666666666666666,250.00000000000017,187.66666666666674)"><svg viewBox="0 0 320 360" data-background-color="#ffffff" preserveAspectRatio="xMidYMid meet" height="1687" width="1500" xmlns="http://www.w3.org/2000/svg" xmlns:xlink="http://www.w3.org/1999/xlink"><g id="tight-bounds" transform="matrix(1,0,0,1,-5.684341886080802e-14,0)"><svg viewBox="0 0 320 360" height="360" width="320"><g><svg></svg></g><g><svg viewBox="0 0 320 360" height="360" width="320"><g><path d="M85.508 32.884c0-1.117 0.558-2.233 1.675-2.233 1.117 0 2.233 0.558 2.234 2.233 0.558 0 1.675 0 2.233-0.558 2.233 0 4.467-0.558 6.141 0 1.675 0.558 2.792 0.558 4.467 1.117 1.675 0.558 2.792 0 3.908-0.559 2.233-0.558 3.908-1.675 6.141-2.233 1.117-0.558 1.675-0.558 2.792-0.558 1.117-0.558 2.233-0.558 3.908-1.117 2.792-0.558 5.583-1.117 7.817-2.233 2.233-1.117 4.467-1.117 6.699-1.675 1.117 0 1.675-0.558 2.792-1.117 0.558 0 0.558-0.558 1.116-1.116 1.117-0.558 1.675-1.117 2.792-0.559 0.558 0.558 1.675 0.558 2.233 0h0.559c3.35 0 6.7-0.558 10.608 0 0.558 0 1.117 0 1.116 0 1.675-1.117 3.908-1.117 6.142-1.116 0.558 0 1.675 0 2.233 0h0.558c2.233 0 4.467 0 6.142 0.558 1.675 0 2.792 0.558 4.466 1.117 1.675 0 2.792 0 4.467 0.558 1.117 0 2.233 0 3.35 0 0.558 0 1.117 0 1.116 0 2.233 0.558 4.467 0.558 6.7 0.558 1.675 0.558 3.35 1.117 5.583 1.117 0.558 0 1.117 0 1.675 0 0.558 0 1.117 0.558 1.675 0.558l0.558 0.559c2.233 0 3.908 1.117 6.142 1.116 0.558 0 1.675 0 2.233 0.559 1.675 1.117 3.908 1.675 6.141 1.675 1.117 0 1.675 0.558 2.234 1.116 1.675 0.558 2.792 1.117 4.466 1.675 1.117 0.558 2.233 0 3.35 0.558 1.675 0.558 3.908 1.117 5.583 2.792 1.117 1.117 2.233 1.117 3.908 2.233 0.558 0 1.117 0.558 1.675 1.117 1.675 1.117 3.35 2.233 5.025 2.791 0.558 0 1.117 0.558 1.675 0.559 1.675 1.117 3.35 2.792 5.583 3.908 1.117 0.558 1.675 1.117 2.792 1.675h0.558c1.675 1.675 3.908 2.792 5.583 4.466 1.675 1.675 2.792 2.792 5.025 3.909 0 0 0 0 0 0.558 0.558 1.117 1.117 1.675 2.233 2.233 1.117 0.558 1.675 1.117 2.234 1.675 1.675 1.117 3.35 2.233 4.466 3.35 0.558 0.558 1.117 1.117 2.233 2.233 0.558 0.558 1.117 1.117 1.675 1.117 2.233 0.558 3.35 2.233 5.025 3.908 1.117 1.117 2.792 2.792 3.908 3.908 0.558 0.558 1.117 1.675 1.675 2.792 1.117 3.35 2.792 6.7 4.467 9.491 0 0 0 0.558 0.558 1.117v0.558c1.117 1.117 1.675 2.792 2.792 3.908 0.558 0.558 0.558 1.117 1.116 1.675 1.117 1.675 1.675 3.908 2.792 5.583 1.675 2.792 2.792 5.583 3.908 8.375v0.558c0.558 1.117 1.117 2.233 1.675 3.908 0 1.117 1.117 2.233 1.675 3.909 0.558 2.792 2.233 5.583 2.791 8.933 0 0.558 0.558 1.117 0.559 2.233 0.558 1.675 1.117 3.35 1.675 5.025 0 0.558 0.558 1.117 1.116 1.675 1.117 1.117 1.117 2.233 1.117 3.35-0.558 2.233 0 4.467 0.558 6.699 0 0.558 0 1.117 0 2.234 0.558 2.233 1.117 5.025 1.117 7.258 0 0.558 0 1.675 0 2.233 0 1.675 0.558 3.35 1.675 5.025 0 0.558 0.558 0.558 0.558 0.558 0.558 0.558 1.117 1.675 1.675 2.233 0.558 0.558 0.558 0.558 1.117 1.117 1.117 1.117 1.675 2.233 1.675 3.908 0 0.558-0.558 1.675-0.559 2.233 0 0.558 0 1.675 0.559 2.234 0.558 0.558 0.558 1.117 0.558 1.675 0 0.558-0.558 1.117-1.117 1.116v0c-0.558 1.675-2.792 2.233-3.35 3.908-0.558 2.233-1.117 4.467-1.674 6.7-0.558 1.675-0.558 2.792-0.559 4.467 0 1.675-0.558 2.792-0.558 4.466-0.558 2.233-1.117 4.467-1.675 6.7 0 1.117-0.558 2.233-0.558 3.35 0.558 0.558 1.117 1.117 1.675 1.116 1.117 1.117 2.233 2.233 3.349 3.35 0.558 0.558 0.558 1.117 0 1.117-0.558 0.558-1.117 0.558-1.674 0.558-0.558-0.558-1.675-1.117-2.234-1.116-0.558-0.558-1.675-1.117-2.791-0.559 0 1.117-0.558 2.233-0.559 2.792-0.558 1.117-1.117 2.792-1.116 3.908-0.558 2.233-1.675 3.908-2.233 6.142-1.117 2.792-2.233 5.025-3.35 7.258-0.558 1.117-1.117 2.233-1.675 3.35v0c0 1.675-1.675 3.35-2.234 5.024-1.117 2.233-2.233 4.467-3.349 7.258-0.558 1.117-1.117 2.233-1.675 2.792-1.117 2.792-2.233 5.025-3.909 7.258-1.117 1.675-2.233 2.792-3.349 3.35-1.117 1.117-2.233 2.233-3.35 3.35-0.558 0.558-1.117 1.117-1.675 1.675-0.558 0.558-0.558 0.558-1.117 1.116-1.117 1.675-2.792 2.792-3.908 4.467-1.117 1.117-1.675 2.233-3.35 3.35-1.117 1.117-2.233 2.792-3.908 3.35-0.558 0.558-1.117 1.675-1.675 2.233-0.558 0.558-1.117 1.675-1.675 2.233 0 1.117 0.558 2.233 0.558 2.792 0 1.675-1.675 2.233-2.791 1.116-1.675-1.117-1.675-1.117-3.35 0-1.675 1.117-3.35 2.792-5.583 3.35-0.558 0-0.558 0.558-1.117 0.559-1.117 0.558-1.675 1.675-2.792 2.233-1.117 1.117-2.792 1.675-3.908 2.791-0.558 0.558-1.117 0.558-1.675 1.117-1.675 1.117-3.35 1.675-5.024 3.35-0.558 0.558-1.117 0.558-1.675 1.117 0 0.558 0 0.558 0 1.116 0 1.117-1.117 2.233-2.792 1.675-1.675-0.558-2.792 0-4.466 0-1.675 0.558-3.35 1.675-5.025 2.233-0.558 0-1.117 0.558-1.675 1.117-1.675 1.117-3.35 1.675-5.025 2.233-1.117 0-2.233 1.117-3.35 1.117-0.558 0-1.117 0.558-1.675 0.558h-0.558c-2.233 1.675-4.467 2.792-6.7 4.467-0.558 0-0.558 0.558-1.117 1.116-0.558 1.117-1.117 1.675-2.233 1.675-2.792 0-3.908 2.233-3.35 4.467 0 0.558 0.558 1.117 0.559 1.675 0.558 1.117 0 2.233-0.559 2.791-0.558 0.558-2.233 0.558-2.791-0.558-1.117-1.117-1.675-2.233-2.234-3.908-0.558-1.117-1.675-2.233-2.791-2.792-1.117-0.558-2.233-0.558-3.35 0-0.558 0-0.558 0.558-1.117 0.558-1.117 1.117-2.792 1.675-4.466 1.117-0.558 0-1.675 0-1.675 0.558-0.558 0.558-0.558 1.675 0 2.234 1.117 1.117 0.558 2.233 0.558 3.908 0 2.233-1.675 3.35-3.908 2.233-0.558-0.558-1.117-0.558-1.675-1.117-0.558 0-0.558-0.558-0.558-1.116-0.558-0.558-0.558-1.675-1.117-2.792-1.117 0.558-2.233 0.558-3.35 1.117-0.558 0-1.117 0.558-1.675 0.558-1.675 0-2.233 0-2.791-1.675-0.558-1.675-1.675-1.675-2.792-2.233-2.233-0.558-5.025-0.558-7.258-1.675h-0.558c-2.233-1.675-4.467-1.675-7.258-1.675-1.675 0-3.35 0.558-5.025 0.558-1.675 0-2.792 0.558-3.908 1.675-0.558 0.558-1.117 1.117-1.675 1.117-0.558-0.558-0.558-1.117-1.117-1.675v-0.558c0-0.558-0.558-1.117-1.116-0.559-1.117 0.558-2.233-0.558-3.35-1.116-0.558-0.558-1.675-1.675-1.675-2.792-0.558-0.558-1.117-1.117-1.675-1.116-1.117 0-2.792-0.558-3.908-0.559-0.558 0-1.117 0-1.117-0.558-0.558-0.558-1.117-0.558-2.233-0.558-0.558 0-0.558-0.558-1.117-0.559 1.117 1.117 1.675 2.233 2.233 3.35 0 0.558 0.558 0.558 0.559 1.117 0.558 1.117 0 1.675-1.675 1.675-1.117 0-1.117 0-1.675 0.558 0 1.117 0 1.675 0 2.792 0 0.558 0 1.117-1.117 1.675 0 0-0.558 0-0.558 0.558-0.558 0.558-0.558 1.117 0 1.675 1.675 1.117 2.792 1.675 4.466 2.233 1.675 0 1.675 1.117 2.234 2.233 0.558 1.117 0 1.675-0.559 2.792-1.117 1.117-2.233 2.233-3.35 3.35-1.675 0.558-2.792 2.233-4.466 2.233-1.117 0-2.233-0.558-2.792-1.675-0.558-2.792-0.558-5.025 0.559-7.816 0-0.558 0.558-1.117 0-1.675-5.025 0-5.025-1.117-5.025-1.675 0-1.117 0.558-1.675 0.558-2.792 0.558-1.117 0-1.675-1.675-2.233-0.558 0-1.117 0-1.675 0-0.558 0-0.558-0.558-1.675-0.558 1.117-0.558 1.675-0.558 2.792-1.117-0.558-2.233-1.117-3.908-2.792-5.025-0.558-0.558-1.117-1.117-1.116-2.233 0-1.675-1.117-2.792-1.675-3.908-1.117-1.675-3.35-2.233-5.025-2.233-1.675-0.558-2.792-0.558-4.467-1.117-1.675-0.558-3.35-2.233-5.024-2.792-0.558-0.558-1.117-1.117-2.234-1.674-2.233-1.117-3.908-2.792-5.583-4.467-1.117-0.558-1.675-1.675-2.791-2.233-1.117-1.117-1.675-2.233-2.792-2.792-1.117-1.117-2.233-2.233-3.908-3.35-1.675-1.117-2.792-2.792-4.467-4.466-1.117-1.675-2.792-2.792-4.466-3.908-0.558 0-1.117 0-1.675 0-0.558 0-1.117 0.558-1.675 0.558-1.675 0.558-2.792 1.675-4.467 2.233 0.558-0.558 0.558-0.558 0-1.675-0.558-0.558-1.117-1.117-1.674-1.116-1.117 0-2.233 0-3.35 0-2.233 0-4.467 0.558-6.7 0.558-1.675 0-3.908 0.558-5.583 1.117 0.558 1.117 0.558 1.675 1.116 2.791-1.117 0.558-2.233 0.558-3.35 0.558-0.558 0-1.675 0.558-2.233 1.117-0.558 0-0.558 0.558-1.116 0-1.117-0.558-2.233 0-3.35 0.558h-0.559c0 0 0-0.558 0.559-0.558 0.558-0.558 1.117-1.117 1.675-1.675 0.558-0.558 1.117-0.558 2.233-1.117-0.558-0.558-0.558-1.117-0.558-1.116-0.558-0.558-1.117-0.558-1.675 0-0.558 0.558-1.117 1.117-1.675 1.675-0.558 0.558-1.117 0.558-1.675 0-0.558-0.558-0.558-1.117 0-1.675 0-0.558 0.558-1.117 1.116-1.675 0.558-0.558 0.558-1.117 1.117-1.675-1.117-1.117-1.675-2.233-2.792-2.792-1.675-1.117-3.35-2.792-4.466-4.466-1.117-2.233-2.792-3.908-5.025-5.025-0.558-0.558-1.117-1.117-1.675-1.675-0.558-0.558-0.558-0.558-1.116-1.117-1.675 0.558-2.792 1.675-4.467 2.234-0.558 0-0.558 0.558-1.117 1.116-0.558 1.117-1.675 1.117-2.791 1.117-0.558 0-1.117-0.558-0.558-1.117 0.558-1.117 1.117-2.233 2.791-1.675 0 0 0.558 0 0.558-0.558 1.117-1.117 2.233-2.792 3.909-3.908-0.558-1.675-1.675-2.792-2.234-3.908-0.558-0.558-0.558-1.117-0.558-2.234 0-0.558 0-0.558-0.558-1.116 0 0-0.558 0-1.117 0.558-0.558 0.558-1.675 1.117-2.791 0 0-0.558 0-1.117 0.558-1.675l0.558-0.558c1.675-0.558 1.675-2.233 1.675-3.908v-0.559c-0.558-1.117-0.558-1.675 0.558-2.791 1.675-1.117 3.35-3.35 3.909-5.025 0.558-1.117 1.675-1.675 2.791-2.792 1.117-1.117 2.233-2.233 2.792-3.908h0.558c2.233 0.558 2.792-1.117 3.908-2.791 0-0.558 0-1.117 0.559-1.117 1.117-1.117 1.117-2.233 0.558-3.908 0-0.558-0.558-1.675-0.558-2.233 0-0.558 0-0.558-0.559-1.117-1.675-1.117-1.675-2.233 0-3.35 1.117-0.558 1.117-1.675 1.675-2.233 0.558-1.117 0.558-2.233 0.559-3.908-0.558-1.675-0.558-3.908-1.117-5.583-0.558-2.233-1.117-5.025-1.675-7.259 0-0.558 0-0.558 0-1.116 0-1.675 0-2.792-0.558-4.467-0.558-0.558-0.558-1.675-0.559-2.233-0.558-1.675-1.117-2.792-2.791-3.35-1.675-1.117-3.908-1.675-5.583-2.791-0.558-0.558-1.117 0-1.675 0.558-0.558 1.117-1.675 2.233-2.234 3.35-0.558 0.558-1.117 1.675-1.675 2.791-1.117 1.117-3.35 2.233-5.024 0.559-0.558-1.117-1.117-1.675 0-2.792 1.117-1.675 2.233-3.35 3.908-4.466 0.558-0.558 1.117-1.675 1.675-2.234 0.558-1.117 0.558-2.233 0.558-3.35-0.558-2.233-1.117-4.467-1.117-7.258 0-2.792 0-5.025 0.559-7.816 0.558-1.117 0.558-2.792 1.116-3.908 0-0.558 0.558-1.675 1.117-2.233 1.117-1.117 2.233-2.233 2.792-3.909 0.558-1.675 1.675-3.35 1.675-5.024 0-0.558 0.558-1.117 0.558-1.675 0-0.558 0.558-1.675 0.558-2.234-0.558-1.675 0-2.792 0.558-3.908 0.558-1.117 1.117-2.792 1.675-3.908 1.117-2.233 1.117-5.025 3.35-7.258 0.558-1.117 1.117-2.233 1.675-3.35 0.558-2.233 1.675-3.908 2.792-5.583 0.558-0.558 0.558-0.558 0.558-1.117 0.558-1.675 1.675-3.35 2.792-5.025 1.117-1.675 1.117-3.35 1.675-5.024 0-0.558 0-1.117 0.558-1.675 1.675-1.675 1.117-3.908 0.558-6.142-1.117-2.792-1.675-5.583-1.116-8.374 0-0.558 0-1.117 0.558-1.117 0.558-1.117 0.558-1.675 1.117-2.792v-0.558c1.117-1.117 2.233-2.792 3.908-3.35 2.233-1.117 4.467-1.675 7.258-2.233 2.233 0 4.467-1.117 6.141-3.35 0-0.558 0.558-0.558 1.117-1.117l0.558-0.558c0.558-1.117 1.117-1.675 1.675-2.233 1.117-1.117 2.233-2.792 3.35-3.908 1.117-1.117 2.233-2.792 3.908-4.467l0.559-0.558c1.117-1.117 2.233-2.233 3.349-2.792 1.117-1.117 2.233-2.233 3.35-3.35 1.117-1.117 1.675-2.233 2.792-3.35 1.117-0.558 2.233-1.675 3.35-2.791 1.117-1.117 2.233-2.233 2.791-2.792 1.117-1.117 2.792-2.233 3.909-2.791 1.117-0.558 2.233-1.117 2.791-2.792 0.558-1.675 1.117-2.792 1.675-4.466 0-1.117 0.558-2.233 1.117-3.35 0.558 0 1.117 0 2.233-0.558-0.558-0.558-1.117-0.558-1.117-1.117 0-0.558 0.558-1.117 0.559-1.117 0-0.558 0.558-1.117 0.558-1.675 0 0 0.558 0 0.558-0.558 0 0 0.558 0 0.559-0.558-1.117 0.558-1.675 0-2.234-0.559 0.558 0.558 1.117 0.558 2.234 1.117 0 0 0.558 0 0.558-0.558 0-0.558 0-1.117 0-1.117 0 0-0.558 0-1.117 0-0.558 0-1.117 0.558-1.675 0.558zM182.097 295.292c0-0.558-0.558-0.558-0.559-1.117-0.558-1.117 0-1.675 0.559-2.233 0.558-0.558 1.117-0.558 2.233-0.558 1.117 0.558 1.675 1.117 1.675 2.233 0 0.558 0 1.675 0 2.233 0.558 2.233 0.558 2.233 2.791 2.233 1.117 0 2.233 0 3.35 0 2.233-0.558 4.467-1.675 6.7-2.233 2.233-0.558 4.467-1.117 6.7-1.675 0.558 0 1.117 0 2.233 0 2.233 0.558 3.908 0 5.583-1.117 0.558-0.558 1.675-0.558 2.233-1.116 1.117-0.558 2.233-0.558 3.35-1.117 2.792-1.675 5.583-2.792 7.817-4.466 1.675-1.117 3.35-2.233 5.024-3.35 1.675-1.117 3.35-2.233 5.025-3.35 1.117-0.558 2.792-1.675 3.908-2.792 2.233-1.675 3.908-3.35 6.142-4.466 1.117-0.558 1.675-1.117 2.233-1.675 1.117-0.558 1.675-1.675 2.792-2.233 0.558-0.558 1.117-1.117 2.233-1.675 0.558-0.558 0.558-0.558 0.558-1.117 1.675-1.117 3.35-3.35 4.467-5.025 1.117-1.117 2.233-2.233 3.35-3.908 1.675-1.675 2.792-3.908 4.466-6.141 1.117-1.117 2.233-2.792 2.792-3.909 1.117-2.233 2.233-4.467 3.908-6.141v-0.558c1.117-2.233 2.233-4.467 3.35-6.7 1.675-2.792 2.792-6.141 4.466-8.933 0.558-1.117 1.117-2.233 1.117-3.35 1.117-2.233 1.675-4.467 2.233-6.7 0-0.558 0-0.558 0.559-1.116 1.675-3.35 2.792-6.7 3.349-10.608 0.558-2.233 1.117-4.467 1.675-6.7 1.117-3.35 1.117-6.141 1.675-9.491 0.558-2.233 0.558-5.025 0.559-7.258 0.558-3.35 0.558-7.258 0-10.608 0-2.792-0.558-6.141-0.559-8.933 0-2.792-0.558-5.025-1.116-7.817-0.558-2.792-1.117-5.025-1.675-7.816-1.117-2.233-1.675-4.467-2.234-7.258-0.558-2.233-1.675-3.908-1.674-6.142 0-1.675-0.558-3.35-2.234-3.908-1.675-0.558-2.792-1.117-4.466-2.233-3.35-2.233-5.025-5.025-4.467-8.375 0-1.675 0.558-3.908 1.117-5.583 0.558-1.675 1.117-3.35 0-4.467-0.558-1.675-1.675-2.792-2.233-3.908-1.117-1.675-1.675-2.792-2.792-3.908-1.117-2.233-2.233-4.467-3.908-6.141-2.233-2.792-3.908-5.583-6.7-7.817l-0.558-0.558c-1.675-2.233-3.35-4.467-5.583-6.142-1.117-1.117-2.233-2.233-3.35-2.791-0.558-0.558-1.117-1.117-2.233-1.675-1.675-1.117-3.35-1.675-4.467-2.792-1.675-1.675-3.908-2.792-5.583-3.908 0 0-0.558 0-0.558-0.558-2.233-1.117-3.908-1.675-6.142-2.792-2.233-1.117-4.467-1.675-6.7-1.675-0.558 0-0.558 0-1.116 0-0.558-0.558-1.675-0.558-2.233-0.558-0.558 0-0.558 0-1.117 0-1.117-0.558-2.792 0-3.908 0-2.233 0.558-4.467 0.558-6.7-0.558-2.792-1.117-5.025-2.233-7.258-3.35-1.675-1.117-2.792-2.233-4.467-3.35-3.35-2.792-6.7-6.141-10.608-8.933 0.558-2.792-0.558-3.35-2.791-3.35-1.117 0-2.233 0.558-3.35 1.117-0.558 0.558-0.558 0.558-1.117 1.116-1.675 1.117-2.792 2.792-4.466 3.909-2.792 1.675-3.908 1.117-6.142 0-0.558-0.558-1.117-1.117-1.675-1.675-1.117-1.117-2.233-2.792-2.791-3.909-1.117-2.233-3.35-2.233-5.583-2.233-1.117 0-2.792 0.558-3.908 0.558-2.233 0-4.467 1.117-5.584 2.792-1.117 1.675-2.233 3.35-3.908 5.025-0.558 0.558-1.675 1.117-2.233 2.233-1.117 1.117-2.233 1.117-3.35 0-0.558-0.558-1.117-0.558-1.675-1.117-0.558 0.558-1.117 1.117-1.117 1.675-0.558 1.117-1.117 2.233-1.674 3.909-0.558 1.675-1.675 3.35-2.792 4.466-0.558 0.558-0.558 0.558-1.117 1.117-0.558 1.117-2.233 1.675-3.35 1.675-1.117 1.117-2.233 2.792-2.791 3.908-0.558 1.117-1.117 2.233-1.675 3.908-0.558 0.558-0.558 1.675-1.117 2.233-0.558 1.117-0.558 1.675-0.558 2.792 0.558 1.675-0.558 2.233-2.233 2.791-1.117 0-1.117 0-1.675 1.117 0 1.675 0.558 2.792 1.116 4.467 0.558 0.558 1.117 1.675 1.117 2.233 0 1.117 0.558 1.675 1.675 2.233 0.558 0.558 1.117 1.117 1.675 1.117 0.558 0 0.558 0.558 1.117 0.558 0.558 0.558 1.117 0 1.116-0.558 0.558-1.675 1.117-3.35 1.117-5.025 0.558-2.233 0.558-3.908 1.116-6.142 0.558-1.117 1.117-1.675 1.675-2.233 0 0 0.558 0 1.117 0v0.559c-0.558 2.792-1.675 6.141-2.233 8.933-0.558 1.117-0.558 2.233-1.117 3.349 0 0.558-0.558 1.117-1.116 1.117-1.117 0.558-2.233 1.117-3.35 1.117-0.558 0-1.117 0-1.675 0-1.117-0.558-2.233-1.675-3.35-2.234-0.558-0.558-1.117-1.117-1.675-1.674-0.558-1.117-1.117-2.233-1.675-3.35-0.558-1.117-1.117-1.675-2.233-2.234-0.558-0.558-1.117-0.558-1.675-1.116-1.117-1.117-2.233-1.675-3.908-1.675-0.558 0-1.675 0-2.234 0-0.558 0-1.675 0.558-2.233 1.116-1.117 0.558-1.675 0.558-2.791 0-2.792-1.117-5.583-0.558-8.375 0.559-1.117 0.558-2.233 1.117-3.35 1.116-2.792 0-5.025 0-7.816 0-2.792 0-5.025-0.558-7.817-1.116-1.117 0-2.233 0-3.35 0-2.233 0.558-2.792 2.233-2.233 4.466 0.558 2.233 1.117 5.025 1.117 7.258 0 1.675 0 3.35 0 5.025 0 1.117 0 1.675 0 2.792 0 1.675-0.558 3.35-0.559 5.025-0.558 3.35-2.233 6.141-4.466 8.374-1.675 1.675-3.908 3.35-6.142 3.908-1.117 0.558-2.233 1.117-3.908 1.675-2.792 1.117-5.025 3.35-6.7 6.142-0.558 1.117-1.117 2.233-1.674 3.35-1.117 1.675-1.675 2.792-2.792 4.466-0.558 1.117-1.675 2.233-2.233 3.35-0.558 1.117-1.675 1.675-1.675 2.792-1.117 2.233-1.675 4.467-2.792 6.699-0.558 1.117-0.558 2.792-1.116 3.909-1.117 2.233-1.117 4.467-1.117 7.258 0 0.558 0 1.117 0 2.233 0 2.792-0.558 6.141-0.558 8.933 0 2.792 0 5.583 0.558 8.375 0 1.117 0 2.792 0 3.908 0 2.233 0.558 5.025 0.558 7.258 0 2.233 0 5.025 1.117 7.258v0.558c0.558 2.233 0.558 4.467 1.116 6.7 0 0.558 0 1.117 0.559 1.675 1.117 3.35 1.675 6.141 2.791 9.491 0.558 2.233 1.675 4.467 2.234 6.7 0.558 2.233 2.792 4.467 3.349 7.258v0c1.675 3.35 3.35 6.7 5.584 10.05 0.558 1.117 1.675 2.233 2.233 3.35 1.117 1.675 1.675 3.35 2.791 4.466 0.558 1.117 1.675 2.233 2.234 2.792 0.558 1.117 1.117 2.233 2.233 3.35 1.117 1.117 2.233 2.792 3.35 3.908 1.675 2.792 3.908 5.025 6.141 6.7 1.117 1.117 2.233 1.675 3.35 2.791 0.558 0.558 1.117 0.558 1.117 1.117 0.558 0.558 1.117 1.117 2.233 1.675 4.467 2.233 7.816 5.583 11.725 8.933 1.675 1.675 3.35 3.35 5.583 4.466 2.233 1.675 3.908 3.35 6.7 3.908 0 0 0.558 0 0.558 0.559 1.117 1.117 2.792 1.675 3.908 2.233 2.233 1.117 5.025 2.233 7.258 3.35 0.558 0.558 1.675 0.558 2.233 1.117 1.675 0.558 3.35 1.117 5.025 1.674 1.675 0.558 2.792 1.117 4.467 1.117h0.558c1.117 0.558 1.675 0.558 2.792 0 0.558 0 1.117 0 1.116 0.558 0 0.558 0.558 0.558 1.117 0.559 0.558 0 1.117 0 2.233 0 0.558-0.558 0.558-1.117 1.117-2.234 0.558 0.558 1.117 0.558 1.116 0.559 0.558 1.117 1.675 1.117 2.792 1.116h0.558c1.117 0 1.675 0 2.233-0.558 0-0.558 1.117-0.558 1.675-0.558 1.675 0.558 3.35 0.558 5.025 1.116 1.117 0.558 2.792 0.558 3.35-0.558 0.558-0.558 1.117-1.117 2.233-0.558 1.117 0.558 1.675 0.558 2.792 0 0.558 0 1.117 0 1.117 0 1.675 0.558 2.792 0.558 4.466 1.116 2.233 0.558 2.233 0.558 3.908-1.116 0.558-0.558 1.675-0.558 2.233 0 0.558 1.117 0.558 1.675 0.559 2.791 0.558 0 0.558 0 1.116-0.558 0-1.117 0.558-1.117 1.675-1.675 0.558 0.558 0.558 0.558 1.117 0.558 1.117 1.117 1.675 1.117 2.233-0.558 0-0.558 0-1.117 0.559-1.116 0.558 0 1.117 0.558 1.116 0.558 0.558 1.117 1.675 1.675 2.233 2.791 1.117 1.117 2.792 1.117 3.35 0 0.558-0.558 1.117-0.558 1.675-0.558 0-0.558 0-1.117 0-1.675 1.675 1.117 1.117 1.117 0.559 1.117zM89.417 34.559c1.675 0.558 2.792 0.558 3.349-0.558-1.117 0.558-2.233-0.558-3.349 0.558z" fill="#ec1616" fill-rule="nonzero" stroke="none" stroke-width="1" stroke-linecap="butt" stroke-linejoin="miter" stroke-miterlimit="10" stroke-dasharray="" stroke-dashoffset="0" font-family="none" font-weight="none" font-size="none" text-anchor="none" style="mix-blend-mode: normal" data-fill-palette-color="tertiary"></path></g><g transform="matrix(1,0,0,1,64,110.89428707224334)"><svg viewBox="0 0 192 138.2114258555133" height="138.2114258555133" width="192"><g><svg viewBox="0 0 192 138.2114258555133" height="138.2114258555133" width="192"><g><svg viewBox="0 0 192 138.2114258555133" height="138.2114258555133" width="192"><g id="textblocktransform"><svg viewBox="0 0 192 138.2114258555133" height="138.2114258555133" width="192" id="textblock"><g><svg viewBox="0 0 192 138.2114258555133" height="138.2114258555133" width="192"><rect width="192" height="138.2114258555133" x="0" y="0" opacity="1" fill="#ec1616" data-fill-palette-color="tertiary"></rect><g transform="matrix(1,0,0,1,17.19,17.19)"><svg width="157.62" viewBox="3.3 -33.3 52.6 34.65" height="103.83142585551332" data-palette-color="#ffffff"><path d="M23.15-31.15Q23.75-30.45 24-30.1L24-30.1Q25.85-27.9 26.68-26.33 27.5-24.75 27.5-22.3L27.5-22.3Q27.5-19.9 26.53-17.48 25.55-15.05 23.73-13.33 21.9-11.6 19.4-11.1L19.4-11.1Q16.35-10.45 14.2-10.45L14.2-10.45Q12.75-10.45 11.35-10.6L11.35-10.6 9.85-10.65 9.85-10.25Q9.85-10.05 9.75-9.93 9.65-9.8 9.55-9.55L9.55-9.55 9.55 0.9Q9.55 0.9 9.25 1.2L9.25 1.2Q8.2 1.2 6.93 0.88 5.65 0.55 4.95 0L4.95 0Q4.95-2.9 4.6-7L4.6-7Q4.3-11.6 4.3-13.9L4.3-13.9Q4.3-14.9 4.5-16.6L4.5-16.6Q4.65-17.6 4.65-18.3L4.65-18.3Q4.65-19.1 4.48-19.63 4.3-20.15 4.3-20.35L4.3-20.35Q4.3-20.55 4.48-20.9 4.65-21.25 4.65-22.1L4.65-22.1Q4.65-22.55 4.45-23.05 4.25-23.55 4.25-23.7L4.25-23.7Q4.25-24.2 4.45-25.1L4.45-25.1Q4.65-26 4.65-26.45L4.65-26.45Q4.65-27.1 4.4-27.33 4.15-27.55 3.73-27.63 3.3-27.7 3.3-27.9L3.3-27.9Q3.3-28.3 3.6-28.63 3.9-28.95 4.3-29L4.3-29 4.3-32.05Q4.3-32.25 4.83-32.63 5.35-33 5.5-33L5.5-33 12.35-33 12.95-33.3 18.45-33.3Q19.05-33.1 20.05-32.5L20.05-32.5Q21.6-31.55 23.15-31.15L23.15-31.15ZM14.75-32.05Q13.6-32.05 12.83-31.55 12.05-31.05 11.1-29.9L11.1-29.9Q11.4-29.9 12.3-30.25 13.2-30.6 13.25-30.55L13.25-30.55Q13.05-30.3 12.68-30.03 12.3-29.75 12-29.65L12-29.65Q12.35-29.55 12.7-29.25 13.05-28.95 13.55-28.95L13.55-28.95 14.15-29 13.55-29.35Q14.25-29.7 15.55-29.7L15.55-29.7 16.7-29.65 17.2-30.2Q17.15-30.15 17.15-30.05L17.15-30.05Q17.15-29.85 17.55-29.75 17.95-29.65 18.25-29.58 18.55-29.5 18.7-29.5L18.7-29.5Q20.15-29.3 20.35-29L20.35-29 20.05-28.7Q21.3-27.7 21.55-27.45L21.55-27.45Q21.75-27.3 21.93-26.98 22.1-26.65 22.28-26.48 22.45-26.3 22.85-26.25L22.85-26.25 22.15-25.65Q22.3-25.55 22.83-25.3 23.35-25.05 23.55-24.65 23.75-24.25 23.75-23.6L23.75-23.6Q23.75-23.2 23.7-23.15L23.7-23.15Q24.55-23.7 25.08-24.13 25.6-24.55 25.6-25.15L25.6-25.15Q25.6-26.25 25.15-26.25L25.15-26.25Q25-26.25 24.65-26.05 24.3-25.85 24.1-25.65L24.1-25.65 24.05-25.85Q24.05-25.95 24.38-26.48 24.7-27 24.7-27.15L24.7-27.15Q24.7-27.25 24.25-27.9 23.8-28.55 23.2-29.1 22.6-29.65 21.95-29.65L21.95-29.65 22.5-30.25Q20.55-31.3 18.88-31.68 17.2-32.05 14.75-32.05L14.75-32.05ZM6.4-28.1Q7.25-28.1 8.83-29.13 10.4-30.15 11.1-30.85L11.1-30.85Q10.2-30.85 9.2-30.35 8.2-29.85 6.75-29L6.75-29 6.4-29Q6.9-29.6 7.6-30.08 8.3-30.55 8.95-30.95 9.6-31.35 9.85-31.5L9.85-31.5 9.85-31.9Q8-31.9 6.85-31.75 5.7-31.6 5.7-30.85L5.7-30.85 6.65-30.85Q6.65-30.75 6.7-30.7 6.75-30.65 6.75-30.55L6.75-30.55Q6.75-30.5 6.28-30.03 5.8-29.55 5.5-29.35L5.5-29.35Q5.6-28.6 5.78-28.35 5.95-28.1 6.4-28.1L6.4-28.1ZM17.25-30.25L17.2-30.2 17.25-30.25ZM14.55-15.4L14.75-15.75 14.75-15.4Q15.4-15.85 16.68-15.95 17.95-16.05 18.2-16.1L18.2-16.1Q19.85-16.2 20.73-17.5 21.6-18.8 22.15-21L22.15-21 22.5-22.5Q22.5-23.4 21.5-25.23 20.5-27.05 19.75-27.45L19.75-27.45Q19.05-27.8 16.7-27.8L16.7-27.8 14.15-27.75Q12.9-27.7 11.5-27.63 10.1-27.55 9.55-27.45L9.55-27.45 9.25-27.15 9.25-26.15 9.25-24.65 9.4-21.85Q9.55-18.55 9.7-16.98 9.85-15.4 10.15-15.4L10.15-15.4 14.55-15.4ZM5.85-27.15Q5.85-27 5.95-26.83 6.05-26.65 6.2-26.55L6.2-26.55Q7.1-26.85 7.1-27.55L7.1-27.55Q6.65-27.55 6.25-27.45 5.85-27.35 5.85-27.15L5.85-27.15ZM8-26.9Q7.35-26.9 6.5-26.13 5.65-25.35 5.65-24.65L5.65-24.65 7.7-24.65Q7.7-24.8 7.83-25.5 7.95-26.2 8-26.9L8-26.9ZM5.75-23.3L5.85-22.85Q6.55-23.4 6.75-24.1L6.75-24.1Q6.6-24.15 6.4-24.15L6.4-24.15Q6.05-24.15 5.9-23.88 5.75-23.6 5.75-23.3L5.75-23.3ZM8-21L8.05-22.6Q8.05-23.6 7.7-24.1L7.7-24.1Q7.1-23.65 6.63-22.73 6.15-21.8 6.15-21.05L6.15-21.05Q6.15-20.3 6.65-20.3L6.65-20.3Q6.1-20.15 5.93-19.68 5.75-19.2 5.75-18.45L5.75-18.45Q6.25-18.45 6.55-18.78 6.85-19.1 7.2-19.8L7.2-19.8Q7.55-20.7 8-21L8-21ZM23.9-21.7Q25.15-21.7 25.85-21.9 26.55-22.1 26.55-22.9L26.55-22.9Q26.55-23.4 26.38-23.6 26.2-23.8 25.8-23.8L25.8-23.8Q25-23.8 24.45-23.13 23.9-22.45 23.9-21.7L23.9-21.7ZM24.45-21.35Q24.05-21.35 23.68-21.18 23.3-21 23.3-20.65L23.3-20.65Q24.55-20.65 25-21.3L25-21.3 24.45-21.35ZM25.3-18.85Q25.65-18.85 25.95-19.73 26.25-20.6 26.25-21L26.25-21 25.85-21Q25.25-20.75 24.2-20.2 23.15-19.65 23.15-19.45L23.15-19.45 23.15-18.85 25.3-18.85ZM7.1-20.35Q6.95-20.3 6.7-20.3L6.7-20.3 6.65-20.3Q6.8-20.35 7.1-20.35L7.1-20.35ZM8.4-18.05Q8.4-18.65 8.33-19 8.25-19.35 8-19.8L8-19.8Q7.2-19.15 6.53-18.13 5.85-17.1 5.85-16.25L5.85-16.25Q7.15-16.25 7.78-16.57 8.4-16.9 8.4-18.05L8.4-18.05ZM21.6-13.85Q22.05-13.85 22.98-14.63 23.9-15.4 24.63-16.45 25.35-17.5 25.35-18.35L25.35-18.35Q24.2-18.35 23.25-17.75 22.3-17.15 22.3-16.1L22.3-16.1 22.65-16.1Q22.65-15.65 20.58-15.13 18.5-14.6 15.95-14.2 13.4-13.8 12.5-13.8L12.5-13.8Q12.5-13.6 12.6-13.28 12.7-12.95 12.95-12.95L12.95-12.95 15.1-12.95 14.55-13.6 14.75-13.6Q15-13.55 15.65-13.48 16.3-13.4 16.95-13.25L16.95-13.25Q16.8-13.2 16.8-13.1L16.8-13.1Q16.8-12.8 17.85-12.7 18.9-12.6 18.85-12.6L18.85-12.6Q20.5-12.6 20.5-13.25L20.5-13.25 18.8-13.25Q18.95-13.4 19.35-13.6 19.75-13.8 20.05-13.9L20.05-13.9 21.6-13.85ZM7.4-15.8Q6.4-15.8 5.95-15.48 5.5-15.15 5.5-14.1L5.5-14.1Q6.2-14.1 6.78-14.53 7.35-14.95 8-15.75L8-15.75 7.4-15.8ZM6.4-13.25Q7.1-13.25 8.9-14.15L8.9-14.15Q8.8-14.35 8.68-14.65 8.55-14.95 8.55-15.1L8.55-15.1 8.35-15.1 6.4-13.25ZM9.25-12.4Q9.95-12.1 10.98-12.08 12-12.05 12.35-12.05L12.35-12.05 11.4-12.95 12-13.25Q12-13.6 11.4-13.6L11.4-13.6Q10.55-13.5 9.9-13.28 9.25-13.05 9.25-12.4L9.25-12.4ZM8.6-12.95L8.6-13.25Q8.2-13.15 7.4-12.98 6.6-12.8 6.23-12.45 5.85-12.1 5.85-11.4L5.85-11.4 5.8-11.05Q5.8-10.5 6.2-10.5L6.2-10.5 8.6-12.95ZM14.35-12L14.75-12.05Q14.65-12.25 14.1-12.33 13.55-12.4 13.25-12.4L13.25-12.4Q13.5-12.15 13.7-12.08 13.9-12 14.35-12L14.35-12ZM8-9.9L8-11.4Q7.65-11.4 7.05-10.38 6.45-9.35 6.4-9.3L6.4-9.3Q6.85-9.3 7.43-9.55 8-9.8 8-9.9L8-9.9ZM7.25-8.65Q6.7-8.65 6.4-8.55 6.1-8.45 6.1-8L6.1-8Q6.1-7.85 6.2-7.75L6.2-7.75Q7.05-8.15 7.4-8.65L7.4-8.65 7.25-8.65ZM6.2-6.45Q7.35-6.45 7.75-6.83 8.15-7.2 8.15-8.35L8.15-8.35 7.7-8.35 6.2-6.75 6.2-6.45ZM8-6.5Q7.75-6.4 7.18-6.23 6.6-6.05 6.38-5.78 6.15-5.5 6.15-4.95L6.15-4.95 6.2-4.3Q6.3-4.45 7.08-5.15 7.85-5.85 8-6.5L8-6.5ZM8.1-3.1L7.1-3.1Q7.9-3.4 8.15-3.93 8.4-4.45 8.4-5.45L8.4-5.45Q7.75-5.45 7.33-4.88 6.9-4.3 6.4-3.15L6.4-3.15Q6.15-2.55 5.85-2 5.55-1.45 5.2-1.2L5.2-1.2Q5.75-0.65 5.85-0.6L5.85-0.6Q6.4-0.6 7.25-1.5 8.1-2.4 8.1-3.1L8.1-3.1ZM7.4-0.6Q7.85-0.6 7.93-0.85 8-1.1 8-1.43 8-1.75 8-1.85L8-1.85Q7.65-1.7 7.55-1.2 7.45-0.7 7.4-0.6L7.4-0.6ZM55-5.15Q55.4-5.15 55.65-4.88 55.9-4.6 55.9-3.95L55.9-3.95Q55.9-2.5 55.62-1.33 55.35-0.15 54.95-0.15L54.95-0.15 54.05-0.2Q51.4 0.25 49.52 0.5 47.65 0.75 45.7 0.75L45.7 0.75 44.5 0.7Q44.35 0.95 43.72 1.15 43.1 1.35 42.65 1.35L42.65 1.35Q39.15 1.1 36.17-1.18 33.2-3.45 31.42-6.85 29.65-10.25 29.65-13.75L29.65-13.75Q29.65-18.85 31.85-23.25 34.05-27.65 38.02-30.3 42-32.95 47.1-32.95L47.1-32.95Q49.65-32.95 51.37-32.75 53.1-32.55 54.5-31.53 55.9-30.5 55.9-28.3L55.9-28.3Q55.9-27.95 55.7-27.5 55.5-27.05 55.15-27.05L55.15-27.05Q54.6-27.05 53.85-27.28 53.1-27.5 52.35-27.75L52.35-27.75Q51-28.2 50.22-28.4 49.45-28.6 48.65-28.6L48.65-28.6Q46.95-28.6 45.3-28.2 43.65-27.8 41.7-27.05L41.7-27.05Q37.9-25.65 36.55-22 35.2-18.35 35.2-13.45L35.2-13.45 35.25-12.2Q35.75-12.05 35.95-9.95L35.95-9.95Q36.05-9.05 36.15-8.85L36.15-8.85Q37.55-5.6 41.02-4.45 44.5-3.3 49-3.3L49-3.3Q49.9-3.3 50.77-3.58 51.65-3.85 53.05-4.45L53.05-4.45Q54.45-5.15 55-5.15L55-5.15ZM50.85-31.45Q50.35-31.4 50.02-31.05 49.7-30.7 49.7-30.7L49.7-30.7Q50.1-30.7 50.47-30.9 50.85-31.1 50.85-31.45L50.85-31.45ZM52.35-31.4Q52.2-31.4 52.02-31.03 51.85-30.65 51.85-30.4L51.85-30.4 52.45-30.4Q52.15-29.9 52.15-29.35L52.15-29.35Q52.65-29.35 53.05-29.65 53.45-29.95 53.45-30.4L53.45-30.4Q53.45-30.85 53.12-31.13 52.8-31.4 52.35-31.4L52.35-31.4ZM46.35-31.35L44.75-31.35Q44.75-30.95 45.45-30.4L45.45-30.4 46.35-31.35ZM47.6-31.35L47.6-31Q48-31 48.2-31.35L48.2-31.35 47.6-31.35ZM48.2-30.1Q48.6-30.1 48.85-30.5 49.1-30.9 49.1-31.35L49.1-31.35 47.9-30.15 48.2-30.1ZM51.6-31.05L51.45-31.1Q51-31.1 50.62-30.53 50.25-29.95 50.25-29.55L50.25-29.55Q50.8-29.55 51.15-30 51.5-30.45 51.6-31.05L51.6-31.05ZM43.6-31.05Q43.2-31.05 42.3-30.53 41.4-30 41.4-29.85L41.4-29.85 41.7-29.2Q44.15-30.95 44.15-31.05L44.15-31.05 43.6-31.05ZM47-30.75L46.65-30.8Q46.3-30.8 46.12-30.55 45.95-30.3 45.7-29.85L45.7-29.85 46.05-29.8Q46.6-29.8 47-30.75L47-30.75ZM44.5-30.15L44.35-30.15Q43.65-30.15 42.35-28.6L42.35-28.6Q43.45-28.65 44.5-30.15L44.5-30.15ZM54.4-30.15Q54.1-29.95 53.92-29.65 53.75-29.35 53.75-29.05L53.75-29.05Q53.75-28.55 54.4-28.55L54.4-28.55 54.4-30.15ZM39.65-29.3Q39.05-29.3 38.65-28.9 38.25-28.5 38.25-27.85L38.25-27.85Q38.75-27.85 39.2-28.33 39.65-28.8 39.65-29.3L39.65-29.3ZM40.5-29.05L40.45-29.2 39.6-27.95Q40.5-28.85 40.5-29.05L40.5-29.05ZM34.3-24.9L34.3-24.2Q35.05-24.7 36-25L36-25Q36.6-25.25 36.87-25.45 37.15-25.65 37.27-26.2 37.4-26.75 37.4-27.95L37.4-27.95 34.3-24.9ZM35.1-24.05Q34.55-24.05 33.95-23.68 33.35-23.3 33.35-22.85L33.35-22.85 33.4-22.7Q33.55-22.75 34-22.98 34.45-23.2 34.77-23.48 35.1-23.75 35.1-24.05L35.1-24.05ZM34.15-21.7Q34.65-21.7 34.97-22.03 35.3-22.35 35.3-22.85L35.3-22.85 35.25-23Q34.8-22.9 34.4-22.53 34-22.15 33.7-21.8L33.7-21.8Q33.8-21.75 33.92-21.73 34.05-21.7 34.15-21.7L34.15-21.7ZM32.1-19.75L32.1-19.35 34.05-20.55 34.05-20.85 32.45-20.85Q32.1-20.85 32.1-19.75L32.1-19.75ZM34.05-19.95Q33.75-19.95 33.15-19.48 32.55-19 32.1-18.4L32.1-18.4Q33.25-18.4 33.77-18.57 34.3-18.75 34.3-19.65L34.3-19.65Q34.3-19.7 34.2-19.8 34.1-19.9 34.05-19.95L34.05-19.95ZM34.15-17.9Q32.75-17.9 32.12-17.53 31.5-17.15 31.5-15.9L31.5-15.9 31.55-15.35Q32.6-16 33.37-16.63 34.15-17.25 34.15-17.9L34.15-17.9ZM32.95-15.3Q34.1-15.3 34.1-16.1L34.1-16.1Q34.1-16.5 34.05-16.6L34.05-16.6Q32.7-16.05 32.1-15.35L32.1-15.35 32.95-15.3ZM31.1-14.35Q31.1-13.1 31.75-13.1L31.75-13.1Q32.1-13.1 32.7-13.63 33.3-14.15 33.7-14.65L33.7-14.65 31.1-14.65 31.1-14.35ZM34.05-13.45Q34.05-13.55 33.85-13.65 33.65-13.75 33.55-13.8L33.55-13.8Q33.1-13.8 32.5-13.28 31.9-12.75 31.85-12.2L31.85-12.2Q32.95-12.2 33.5-12.4 34.05-12.6 34.05-13.45L34.05-13.45ZM31.55-11.3Q31.55-10.95 31.67-10.5 31.8-10.05 31.85-10.05L31.85-10.05 32.45-10.05 34.05-11.6 34.05-11.95Q31.55-11.95 31.55-11.3L31.55-11.3ZM54.05-2.05L54.05-3Q49.9-1.7 47.9-1.7L47.9-1.7Q47.35-1.7 45.05-2.05L45.05-2.05Q44.05-2.25 40.1-3.45L40.1-3.45Q39.1-3.75 37.7-4.15 36.3-4.55 36.15-4.55L36.15-4.55 36.75-5.1Q36.6-5.45 36.4-5.45L36.4-5.45Q36.25-5.45 36.1-5.4 35.95-5.35 35.8-5.35L35.8-5.35Q35.8-6.2 35.62-6.6 35.45-7 34.6-7L34.6-7Q35.05-7.25 35.25-7.9L35.25-7.9Q34.4-7.9 34.4-9L34.4-9 33.4-9Q33.7-9.2 34.15-9.4 34.6-9.6 34.6-9.8L34.6-9.8Q34.6-10 34.5-10.38 34.4-10.75 34.3-11L34.3-11Q33.8-10.9 33.12-10.33 32.45-9.75 32.45-9.3L32.45-9.3Q32.55-8.9 32.77-8.22 33-7.55 33.15-7.25L33.15-7.25Q33.5-7.25 34.05-7.65L34.05-7.65Q33.95-7.6 33.82-7.38 33.7-7.15 33.7-7L33.7-7Q33.7-4.9 35.25-3.88 36.8-2.85 38.4-2.35 40-1.85 40.45-1.7L40.45-1.7 40.5-1.7Q40.7-1.7 40.97-1.85 41.25-2 41.4-2.05L41.4-2.05Q41.35-1.45 43.37-1.15 45.4-0.85 46.65-0.85L46.65-0.85Q48.65-0.85 50.92-1.18 53.2-1.5 54.05-2.05L54.05-2.05ZM34.05-7.65L34.05-7.65Z" opacity="1" transform="matrix(1,0,0,1,0,0)" fill="#ffffff" class="wordmark-text-0" data-fill-palette-color="quaternary" id="text-0"></path></svg></g></svg></g></svg></g></svg></g></svg></g></svg></g></svg></g><defs></defs></svg><rect width="320" height="360" fill="none" stroke="none" visibility="hidden"></rect></g></svg></g></svg>